<?xml version="1.0" encoding="UTF-8"?><svg id="a" xmlns="http://www.w3.org/2000/svg" viewBox="0 0 200 200"><defs><style>.b{fill:#d89dfc;}.c{fill:none;stroke:#6e48aa;stroke-miterlimit:10;stroke-width:3px;}</style></defs><g><path class="b" d="M10.5,110.55l60.49-51.67v14.92L20.01,116.17v.43l50.98,42.38v14.92L10.5,122.23v-11.68Z"/><path class="b" d="M79.47,182.55L115.85,25.79h8.86l-36.5,156.76h-8.74Z"/><path class="b" d="M193.41,122.44l-60.49,51.46v-14.92l51.37-42.38v-.43l-51.36-42.37v-14.92l60.49,51.46v12.1h0Z"/></g><g><path class="c" d="M6.58,102.2l60.49-51.67v14.92L16.09,107.82v.43l50.98,42.38v14.92L6.58,113.88v-11.68Z"/><path class="c" d="M75.55,174.21L111.93,17.45h8.86l-36.5,156.76h-8.74Z"/><path class="c" d="M189.49,114.09l-60.49,51.46v-14.92l51.37-42.38v-.43l-51.36-42.37v-14.92l60.49,51.46v12.1h0Z"/></g></svg>