<?xml version="1.0" encoding="UTF-8"?><svg id="a" xmlns="http://www.w3.org/2000/svg" viewBox="0 0 200 200"><defs><style>.b{fill:#d89dfc;}.c{fill:#6e48aa;}.d{fill:none;stroke:#6e48aa;stroke-miterlimit:10;stroke-width:3px;}</style></defs><path class="b" d="M161.68,114.15l14.36-17.12c3.35-3.99,2.83-9.93-1.16-13.28l-35.74-29.99c-3.99-3.35-9.93-2.83-13.28,1.16l-12.55,14.96-1.78,2.13c-.56,.67-1.22,1.26-1.95,1.75l-27.44,18.51c-1.8,1.21-3.12,3-3.75,5.08l-24.66,81.28c-1.1,3.61,.07,7.53,2.96,9.95h0c2.89,2.42,6.94,2.89,10.31,1.19l74.76-37.76c1.91-.97,3.44-2.55,4.33-4.5l14.24-31.23c.35-.77,.81-1.5,1.36-2.15Z"/><g><rect class="c" x="96.99" y="29.44" width="74.57" height="32.96" transform="translate(207.61 167.4) rotate(-140)"/><path class="d" d="M27.48,164.28l1.47,1.23,57.94-69.05c-2.97-4.61-2.75-10.8,.96-15.23,4.56-5.44,12.67-6.15,18.12-1.59,5.44,4.56,6.15,12.67,1.59,18.12-3.71,4.42-9.77,5.72-14.83,3.59l-57.94,69.05,1.93,1.62,93.03-47.31,17.77-38.75-54.98-46.13-35.08,24.23-29.98,100.22Z"/></g></svg>