<?xml version="1.0" encoding="UTF-8"?><svg id="a" xmlns="http://www.w3.org/2000/svg" viewBox="0 0 200 200"><defs><style>.b{fill:#d89dfc;}.c{fill:#6e48aa;}</style></defs><path class="b" d="M177.96,109.49c-10.02-45.38-42-72.6-94.66-67.79-32.1,2.93-57.61,24.59-58.16,56.15-.55,31.57,24.59,57.61,56.15,58.16,7.75,.14,15.08-.45,21.96-3.95,1.66-.84,3.78-1.03,4.62-1.02,4.96,.09,8.91,4.18,8.82,9.14-.01,.76-.12,1.51-.31,2.21-.27,.97-.69,1.88-1.25,2.69l-2.13,3.4c-1.07,1.94-1.69,4.16-1.73,6.53-.14,7.78,5.49,14.25,13.85,14.34,37.71,.42,62.48-36.18,52.84-79.87Z"/><g><g><path class="c" d="M121.84,162.76c-.22,0-.43,0-.65,0-4.04-.04-7.72-1.57-10.37-4.29-2.71-2.78-4.15-6.57-4.08-10.67,.04-2.38,.67-4.74,1.8-6.81l2.15-3.43c.54-.79,.93-1.63,1.18-2.53,.18-.68,.28-1.37,.29-2.06,.08-4.62-3.61-8.44-8.23-8.52-.68,.01-2.74,.14-4.34,.95-2.8,1.43-5.78,2.44-9.11,3.1-.33,.07-.65-.15-.71-.48-.06-.33,.15-.65,.48-.71,3.22-.64,6.09-1.61,8.79-2.99,1.76-.9,3.99-1.1,4.91-1.08,5.29,.09,9.51,4.47,9.42,9.76-.01,.79-.12,1.58-.33,2.36-.28,1.03-.73,2-1.34,2.88l-2.12,3.37c-1.03,1.87-1.6,4.03-1.64,6.21-.07,3.77,1.26,7.25,3.74,9.8,2.42,2.49,5.8,3.88,9.51,3.92,16.07,.2,30.51-6.53,40.55-18.89,12.49-15.37,16.75-37.33,11.69-60.24-1.93-8.76-4.71-16.86-8.24-24.1-.15-.3-.02-.67,.28-.81s.66-.02,.81,.28c3.58,7.32,6.38,15.52,8.34,24.37,5.14,23.28,.79,45.61-11.93,61.27-10.15,12.49-24.63,19.34-40.85,19.34Zm21.43-28.02c-12.08,0-21.92-9.83-21.92-21.92s9.83-21.92,21.92-21.92,21.92,9.83,21.92,21.92-9.83,21.92-21.92,21.92Zm0-42.62c-11.42,0-20.7,9.29-20.7,20.7s9.29,20.7,20.7,20.7,20.7-9.29,20.7-20.7-9.29-20.7-20.7-20.7Zm-104.91,20.98c-.15,0-.31-.06-.43-.17-1-.98-1.97-2-2.89-3.04h0c-9.57-10.84-14.7-24.78-14.44-39.24,.53-30.3,24.68-53.64,58.71-56.75,19.46-1.78,36.62,.76,51,7.53h0c.85,.4,1.69,.81,2.51,1.24,.3,.15,.41,.52,.26,.82-.15,.3-.52,.41-.82,.26-.81-.42-1.64-.83-2.47-1.22h0c-14.19-6.68-31.13-9.18-50.37-7.43-33.4,3.05-57.09,25.9-57.61,55.56-.25,14.16,4.77,27.8,14.14,38.41h0c.9,1.03,1.86,2.03,2.83,2.99,.24,.23,.24,.62,0,.86-.12,.12-.28,.18-.43,.18Zm9.12-13.45c-8.01,0-14.53-6.52-14.53-14.53s6.52-14.52,14.53-14.52,14.52,6.52,14.52,14.52-6.52,14.53-14.52,14.53Zm0-27.84c-7.34,0-13.31,5.97-13.31,13.31s5.97,13.31,13.31,13.31,13.31-5.97,13.31-13.31-5.97-13.31-13.31-13.31Zm11.38-11.08c-8.01,0-14.53-6.52-14.53-14.52s6.52-14.52,14.53-14.52,14.52,6.52,14.52,14.52-6.52,14.52-14.52,14.52Zm0-27.83c-7.34,0-13.31,5.97-13.31,13.31s5.97,13.31,13.31,13.31,13.31-5.97,13.31-13.31-5.97-13.31-13.31-13.31Zm39.04,19.13c-8.01,0-14.52-6.52-14.52-14.52s6.52-14.52,14.52-14.52,14.52,6.52,14.52,14.52-6.52,14.52-14.52,14.52Zm0-27.83c-7.34,0-13.31,5.97-13.31,13.31s5.97,13.31,13.31,13.31,13.31-5.97,13.31-13.31-5.97-13.31-13.31-13.31Z"/><path class="c" d="M121.84,163.76h-.66c-4.31-.05-8.24-1.68-11.08-4.6-2.89-2.97-4.44-7.02-4.37-11.38,.04-2.55,.71-5.06,1.93-7.27l2.18-3.48c.5-.72,.85-1.47,1.06-2.27,.16-.6,.25-1.21,.26-1.81,.07-4.07-3.18-7.44-7.24-7.51-.35,0-2.37,.08-3.87,.84-2.88,1.47-5.95,2.51-9.36,3.19-.41,.08-.84,0-1.2-.23-.36-.24-.61-.6-.69-1.03-.17-.87,.4-1.72,1.27-1.89,3.12-.62,5.91-1.57,8.53-2.9,1.92-.98,4.26-1.2,5.38-1.19,5.84,.1,10.5,4.94,10.4,10.77-.01,.87-.14,1.74-.37,2.6-.32,1.15-.81,2.22-1.48,3.19l-2.1,3.34c-.92,1.69-1.45,3.67-1.48,5.7-.06,3.5,1.17,6.73,3.46,9.09,2.23,2.3,5.36,3.58,8.8,3.62,15.78,.19,29.9-6.38,39.76-18.52,12.3-15.13,16.49-36.78,11.49-59.4-1.92-8.68-4.66-16.71-8.16-23.88-.19-.38-.22-.82-.08-1.23,.14-.41,.43-.73,.81-.92,.8-.39,1.76-.06,2.15,.74,3.61,7.39,6.45,15.67,8.42,24.59,5.21,23.57,.79,46.22-12.13,62.12-10.33,12.71-25.11,19.71-41.63,19.71Zm-31.54-36.24h0Zm52.97,8.22c-12.64,0-22.92-10.28-22.92-22.92s10.28-22.92,22.92-22.92,22.92,10.28,22.92,22.92-10.28,22.92-22.92,22.92Zm0-42.62c-10.86,0-19.7,8.84-19.7,19.7s8.84,19.7,19.7,19.7,19.7-8.84,19.7-19.7-8.84-19.7-19.7-19.7Zm-104.91,20.98c-.42,0-.82-.16-1.12-.45-.91-.89-1.79-1.82-2.65-2.77h0l-.3-.34-.07-.08-.02-.02c-9.68-11.01-14.87-25.15-14.61-39.82,.54-30.83,25.06-54.57,59.62-57.73,19.64-1.79,36.97,.77,51.52,7.63l.16,.08c.81,.38,1.6,.78,2.39,1.18,.79,.41,1.09,1.38,.69,2.17-.4,.78-1.37,1.1-2.16,.69-.77-.4-1.55-.79-2.34-1.16l-.18-.04-.08-.08c-13.99-6.55-30.71-9-49.7-7.26-32.87,3-56.19,25.45-56.7,54.58-.24,13.91,4.69,27.31,13.89,37.73,.89,1.01,1.82,1.99,2.78,2.93,.31,.3,.48,.7,.48,1.13s-.16,.83-.46,1.14c-.3,.31-.72,.48-1.15,.48Zm9.12-13.45c-8.56,0-15.53-6.97-15.53-15.53s6.97-15.52,15.53-15.52,15.52,6.96,15.52,15.52-6.96,15.53-15.52,15.53Zm0-27.84c-6.79,0-12.31,5.52-12.31,12.31s5.52,12.31,12.31,12.31,12.31-5.52,12.31-12.31-5.52-12.31-12.31-12.31Zm11.38-11.08c-8.56,0-15.53-6.96-15.53-15.52s6.96-15.52,15.53-15.52,15.52,6.96,15.52,15.52-6.96,15.52-15.52,15.52Zm0-27.83c-6.79,0-12.31,5.52-12.31,12.31s5.52,12.31,12.31,12.31,12.31-5.52,12.31-12.31-5.52-12.31-12.31-12.31Zm39.04,19.12c-8.56,0-15.53-6.96-15.53-15.52s6.96-15.52,15.53-15.52,15.52,6.96,15.52,15.52-6.96,15.52-15.52,15.52Zm0-27.83c-6.79,0-12.31,5.52-12.31,12.31s5.52,12.31,12.31,12.31,12.31-5.52,12.31-12.31-5.52-12.31-12.31-12.31Z"/></g><g><path class="c" d="M38.23,165.45c-5.13,0-9.89-1.04-13.39-2.91-3.06-1.64-4.75-2.91-4.88-4.91-.14-2.03,1.42-3.16,2.92-4.25,2.98-2.16,7.95-5.78,6.17-18.14-.62-4.31,.53-8.29,3.32-11.52,3.6-4.16,9.77-6.75,16.1-6.75,3.7,0,7.04,.89,9.65,2.57,17.15,11.06,11.42,25.58,8.16,31.31-6.13,10.76-18.51,14.6-28.04,14.6Zm10.24-47.26c-5.98,0-11.8,2.42-15.18,6.33-2.56,2.96-3.61,6.61-3.04,10.56,1.89,13.08-3.46,16.97-6.65,19.29-1.35,.98-2.52,1.83-2.42,3.18,.1,1.44,1.57,2.49,4.25,3.92,3.33,1.79,7.88,2.77,12.81,2.77,9.19,0,21.11-3.67,26.99-13.98,3.09-5.43,8.52-19.18-7.76-29.69-2.41-1.56-5.52-2.38-8.99-2.38Z"/><path class="c" d="M38.23,166.45c-5.29,0-10.22-1.08-13.86-3.03-2.74-1.47-5.22-3.01-5.41-5.72-.18-2.58,1.77-3.99,3.33-5.12,2.98-2.16,7.47-5.42,5.77-17.18-.67-4.6,.56-8.87,3.56-12.32,3.79-4.37,10.24-7.09,16.85-7.09,3.9,0,7.42,.94,10.19,2.73,17.87,11.53,11.89,26.67,8.49,32.64-6.35,11.14-19.1,15.1-28.91,15.1Zm10.24-47.26c-5.7,0-11.23,2.29-14.42,5.98-2.36,2.73-3.33,6.11-2.81,9.76,1.98,13.68-3.67,17.79-7.05,20.24-1.28,.93-2.07,1.54-2.01,2.31,.07,.96,1.47,1.9,3.72,3.11,3.19,1.71,7.57,2.65,12.34,2.65,8.91,0,20.45-3.54,26.12-13.48,2.95-5.18,8.13-18.31-7.43-28.35-2.25-1.45-5.17-2.22-8.45-2.22Z"/></g><g><g><path class="c" d="M68.36,133.1c-1.88,0-3.6-.59-5.09-1.75-1.11-.86-5.73-5.48-6.59-6.59-4.1-5.31-.24-11.48,3.02-15.67l.87-1.12,.21,1.41c.08,.53,.5,.96,1.03,1.03,.04,0,4.59,.67,9.54,5.62,4.98,4.98,6.39,10.39,6.41,10.44h0c.1,.43,.43,.75,.87,.87l1.18,.32-.97,.75c-4.13,3.2-7.46,4.69-10.48,4.69Zm-8.33-22.44c-4.3,5.79-5.04,9.94-2.39,13.36,.78,1,5.36,5.59,6.37,6.37,3.29,2.55,7.58,1.88,13.34-2.38-.38-.32-.65-.75-.78-1.24h0c-.01-.05-1.35-5.14-6.09-9.88-4.59-4.59-8.81-5.27-8.85-5.27-.65-.09-1.23-.45-1.61-.96Z"/><path class="c" d="M68.36,134.1c-2.11,0-4.03-.66-5.71-1.95-1.18-.91-5.86-5.6-6.77-6.77-4.53-5.86-.44-12.45,3.02-16.89l2.31-2.96,.54,3.72c.01,.09,.09,.17,.18,.19,.2,.03,4.94,.73,10.11,5.9,5.13,5.13,6.61,10.66,6.67,10.89,.02,.09,.07,.13,.16,.16l3.14,.84-2.57,1.99c-4.32,3.34-7.84,4.9-11.1,4.9Zm-8.16-21.96c-4.39,6.29-3.27,9.32-1.77,11.27,.73,.95,5.24,5.46,6.19,6.19,1.79,1.39,4.89,2.66,11.3-1.79-.14-.25-.24-.52-.31-.8-.01-.04-1.32-4.9-5.83-9.41-4.3-4.3-8.26-4.99-8.3-4.99-.45-.06-.89-.22-1.29-.47Z"/></g><g><path class="c" d="M80.22,127.32l-.08-1.22c0-.07-.01-.14-.03-.21-.06-.24-1.52-6.05-7.05-11.58-5.57-5.57-10.74-6.28-10.95-6.31-.07,0-.14,0-.21,0l-1.41,.07,.92-1.07c3.88-4.51,9.24-9.53,14.91-14.85,1.24-1.16,2.49-2.34,3.76-3.53,1.55-1.47,3.81-3.63,6.6-6.31C123.65,46.87,162.81,10.64,173.1,10.64c1.58,0,2.55,.65,3.1,1.19h0c4.96,4.96-4.98,21.2-70.46,89.49l-.73,.77c-2.35,2.45-4.25,4.44-5.59,5.85-1.2,1.27-2.37,2.53-3.53,3.76-5.29,5.64-10.28,10.97-14.74,14.82l-.92,.8Zm-17.15-20.37c1.78,.42,6.22,1.87,10.86,6.5,4.74,4.74,6.62,9.71,7.18,11.49,4.22-3.75,8.93-8.77,13.89-14.07,1.16-1.24,2.34-2.5,3.54-3.76,1.33-1.41,3.25-3.41,5.59-5.86l.73-.77C160.61,42.35,180.37,17.73,175.34,12.69c-.38-.38-1.08-.83-2.24-.83-9.86,0-48.79,36.05-85.57,71.32-2.8,2.68-5.06,4.85-6.61,6.32-1.27,1.2-2.53,2.38-3.76,3.54-5.3,4.97-10.32,9.67-14.09,13.92Z"/><path class="c" d="M79.35,129.39l-.21-3.23c-.06-.27-1.45-5.81-6.79-11.14-5.34-5.34-10.17-6-10.37-6.02l-3.76,.18,2.43-2.83c3.91-4.55,9.29-9.6,14.99-14.93,1.23-1.16,2.49-2.33,3.76-3.53,1.55-1.47,3.81-3.63,6.6-6.3C124.97,44.22,162.49,9.64,173.1,9.64c1.92,0,3.12,.8,3.8,1.48,5.66,5.66-3.69,21.27-70.45,90.9l-.73,.76c-2.34,2.44-4.25,4.44-5.58,5.84-1.2,1.27-2.37,2.52-3.53,3.76-5.31,5.67-10.32,11.02-14.81,14.89l-2.45,2.11Zm-14.47-22.95c2.29,.79,5.98,2.54,9.75,6.31,3.92,3.92,5.95,8,6.91,10.45,3.89-3.58,8.18-8.17,12.7-12.99,1.18-1.26,2.36-2.52,3.56-3.79,1.34-1.41,3.25-3.41,5.6-5.86l.73-.76C139.89,62.51,180.21,18.99,174.63,13.4c-.25-.25-.71-.54-1.53-.54-10.79,0-62.71,49.78-84.88,71.04l-.26,.25c-2.68,2.57-4.85,4.65-6.35,6.07-1.25,1.18-2.49,2.34-3.71,3.48-4.86,4.56-9.43,8.84-13.03,12.74Z"/></g></g></g></svg>