<?xml version="1.0" encoding="utf-8"?>
<!-- Generator: Adobe Illustrator 25.4.1, SVG Export Plug-In . SVG Version: 6.00 Build 0)  -->
<svg version="1.1" id="Camada_1" xmlns="http://www.w3.org/2000/svg" xmlns:xlink="http://www.w3.org/1999/xlink" x="0px" y="0px" viewBox="0 0 320 140" style="enable-background:new 0 0 320 140;" xml:space="preserve">
	<style type="text/css">
	.st0{fill:#39096B;}
	.st1{fill:#D90429;}
	.st2{fill:#FF9D00;}
	.st3{fill:#FED02E;}
	.st4{fill:#FFFFFF;}
	.st5{fill:#F4B5B5;stroke:#471C0E;stroke-width:0.25;stroke-miterlimit:10;}
	.st6{fill:#1D262D;}
	.st7{fill:#EAA7A7;stroke:#471C0E;stroke-width:0.75;stroke-miterlimit:10;}
	.st8{fill:#471C0E;}
	.st9{fill:#EAA7A7;stroke:#471C0E;stroke-width:0.25;stroke-miterlimit:10;}
	.st10{opacity:0.33;fill:#D895A2;}
	.st11{fill:#CA6760;}
	.st12{fill:#8E4644;}
	.st13{fill:#4B2B22;}
	.st14{fill:#EE595E;}
	.st15{clip-path:url(#SVGID_00000013187074814260694660000010892165011542473607_);}
	.st16{clip-path:url(#SVGID_00000126287596027070987040000016548343497330596028_);}
</style>
	<g>
		<g>
			<g>
				<path class="st4" d="M15.38,78.32l-0.06-2.08l6.27-0.29l0.18,3.08c0.03,0.62,0.17,1.09,0.42,1.4c0.25,0.31,0.65,0.46,1.2,0.43
				c0.84-0.04,1.22-0.74,1.16-2.1c-0.05-1-0.28-1.78-0.7-2.34c-0.42-0.56-1.08-1.14-1.96-1.74l-3.45-2.43
				c-1.19-0.83-2.05-1.71-2.6-2.63c-0.54-0.92-0.86-2.24-0.93-3.96c-0.06-1.34,0.24-2.49,0.9-3.47c0.66-0.98,1.57-1.73,2.72-2.26
				c1.15-0.53,2.44-0.83,3.87-0.89c5.09-0.23,7.75,2.19,7.98,7.25l0.02,0.5l-6.49,0.29l-0.05-1c-0.03-0.62-0.15-1.15-0.38-1.58
				c-0.22-0.43-0.57-0.64-1.05-0.62c-0.43,0.02-0.75,0.16-0.97,0.42c-0.22,0.26-0.31,0.61-0.29,1.04c0.04,0.96,0.45,1.68,1.21,2.17
				l4,2.66c1.43,0.96,2.55,2.03,3.34,3.21c0.8,1.17,1.24,2.68,1.32,4.52c0.11,2.44-0.5,4.34-1.82,5.72
				C27.91,85,26,85.74,23.52,85.85C18.33,86.09,15.62,83.58,15.38,78.32z" />
				<path class="st4" d="M34.8,84.87c-0.57-0.58-0.89-1.54-0.95-2.88l-0.65-14.36l-1.54,0.07l-0.19-4.18L33,63.45l-0.22-4.87
				l5.34-0.24l0.22,4.87l1.57-0.07l0.19,4.18l-1.57,0.07l0.59,12.91c0.02,0.4,0.06,0.69,0.13,0.88c0.07,0.19,0.24,0.27,0.52,0.26
				c0.21-0.01,0.41-0.03,0.6-0.06c0.19-0.03,0.31-0.05,0.38-0.05l0.17,3.77c-0.31,0.1-0.76,0.21-1.35,0.33
				c-0.59,0.12-1.17,0.2-1.74,0.22C36.38,85.71,35.37,85.46,34.8,84.87z" />
				<path class="st4" d="M44.06,81.72c-0.75-0.96-1.24-2.47-1.45-4.51l-1.83-17.23l5.57-0.59l1.71,16.13
				c0.02,0.15,0.06,0.54,0.13,1.19c0.07,0.64,0.22,1.09,0.44,1.33c0.23,0.24,0.55,0.34,0.98,0.3c0.57-0.06,0.9-0.34,1-0.83
				s0.1-1.18,0.01-2.06l-0.02-0.19L48.91,59.1l5.5-0.58l2.45,23.15l-5.53,0.59l-0.26-2.47c-0.28,1.01-0.65,1.75-1.11,2.23
				c-0.46,0.48-1.19,0.77-2.18,0.87C46.06,83.07,44.82,82.68,44.06,81.72z" />
				<path class="st4" d="M60.39,82.39c-0.77-0.51-1.34-1.27-1.73-2.26c-0.39-0.99-0.71-2.3-0.98-3.91l-1.61-10.11
				c-0.26-1.59-0.08-2.96,0.56-4.1c0.64-1.14,1.69-1.84,3.16-2.08c1.45-0.24,2.61,0.06,3.48,0.9l-0.87-5.23l5.36-0.89l4.39,26.45
				l-5.36,0.89l-0.4-2.39c-0.16,0.93-0.46,1.66-0.91,2.18c-0.45,0.52-1.11,0.86-1.99,1.01C62.2,83.05,61.16,82.9,60.39,82.39z
				 M65.77,77.35c0.08-0.55,0.04-1.26-0.1-2.14l-0.16-0.95l-1.4-8.42c-0.11-0.65-0.29-1.19-0.55-1.61
				c-0.26-0.42-0.62-0.59-1.09-0.51c-0.53,0.09-0.85,0.36-0.95,0.8c-0.1,0.45-0.1,1.03,0.02,1.74l1.56,9.43
				c0.31,1.88,0.9,2.75,1.75,2.6C65.39,78.21,65.69,77.89,65.77,77.35z" />
				<path class="st4" d="M72.14,60.8l-0.2-3.57l5.12-0.29l0.2,3.57L72.14,60.8z M73.42,83.65l-1.2-21.42l5.12-0.29l1.2,21.42
				L73.42,83.65z" />
				<path class="st4" d="M79.18,75.74l-0.4-8.86c-0.1-2.09,0.42-3.78,1.54-5.07c1.12-1.29,2.7-1.98,4.75-2.07
				c2.05-0.09,3.69,0.45,4.92,1.63c1.23,1.18,1.89,2.82,1.99,4.91l0.4,8.86c0.21,4.56-1.89,6.94-6.29,7.14
				C81.69,82.48,79.39,80.3,79.18,75.74z M86.82,77.72c0.19-0.31,0.27-0.73,0.25-1.25l-0.49-10.79c-0.06-1.29-0.5-1.91-1.32-1.87
				c-0.82,0.04-1.21,0.7-1.15,1.99l0.49,10.79c0.02,0.52,0.14,0.93,0.36,1.22c0.21,0.29,0.53,0.43,0.95,0.41
				C86.33,78.19,86.63,78.03,86.82,77.72z" />
			</g>
		</g>
		<path class="st4" d="M15.85,57.39c0,0,14.27-1.47,14.48,1.05c1.25,2.44,0.73-5.98,8.56-1.81s11.88-4.41,11.88-4.41l8.97,5.55
		c0,0,1.3-7.67,7.91-6.41c6.61,1.26,11.01,5.13,11.01,5.13s10.7-0.17,13.85,7.61c2.6,6.43,7.98,1.12,9.78-0.93
		C105.45,17.05,79.72,3.4,53.74,3.4C28.04,3.4,1.85,16.75,5.01,61.65L15.85,57.39z" />
		<path class="st4" d="M75.36,85.81c-9.05-2.91-37.68,2.37-37.68,2.37s-20.61,0.46-21.64-4.5c-0.6-2.89-3.83,0.66-6.44,4.12
		c7.51,26.6,23.2,48.79,44.42,48.79c23.16,0,39.73-26.4,45.9-56.19C95.11,82.71,82.56,88.13,75.36,85.81z" />
		<g>
			<path class="st4" d="M109.6,28.54h23.48c6.31,0,10.9,1.55,13.75,4.63c2.85,3.09,4.28,8.13,4.28,15.11v3.83
			c0,8.26-2.96,13.2-8.87,14.81c0,0,0,0,0,0c3.63,0.94,6.18,3.12,7.66,6.55c1.48,3.43,2.22,7.96,2.22,13.6
			c0,9.2-1.38,16.17-4.13,20.91c-2.76,4.74-7.73,7.1-14.91,7.1H109.6V28.54z M130.06,61.08c1.48,0,2.48-0.55,3.02-1.66
			c0.54-1.11,0.81-2.67,0.81-4.69v-8.67c0-2.82-1.24-4.23-3.73-4.23h-3.63v19.24H130.06z M134.99,93.43V82.65
			c0-2.62-0.39-4.6-1.16-5.94c-0.77-1.34-2.13-2.02-4.08-2.02h-3.22v25.09l1.65,0.1c0.04,0,0.09,0,0.13,0
			C132.76,99.85,134.99,97.71,134.99,93.43z" />
			<path class="st4" d="M160.44,110.96c-2.05-3.29-3.07-8.19-3.07-14.71V41.33h17.73v51.39c0,0.47,0,1.73,0,3.78
			c0,2.05,0.32,3.49,0.96,4.33c0.64,0.84,1.63,1.26,2.97,1.26c1.81,0,2.96-0.76,3.43-2.27c0.47-1.51,0.71-3.68,0.71-6.5v-0.6
			l0.1-51.39h17.53v73.76h-17.63v-7.86c-1.21,3.09-2.62,5.31-4.23,6.65c-1.61,1.34-4,2.02-7.15,2.02
			C166.26,115.9,162.48,114.25,160.44,110.96z" />
			<path class="st4" d="M207.84,41.33h17.63v8.16c0.87-2.89,2.4-5.12,4.58-6.7c2.18-1.58,4.89-2.37,8.11-2.37v14.71
			c-2.49,0-5.22,0.35-8.21,1.06c-2.99,0.71-4.48,1.53-4.48,2.47v56.43h-17.63V41.33z" />
			<path class="st4" d="M242.4,36.4V24.1h17.63V36.4H242.4z M242.4,115.09V41.33h17.63v73.76H242.4z" />
			<path class="st4" d="M272.63,112.97c-1.75-1.95-2.62-5.07-2.62-9.37V57.56h-4.94v-13.4h4.94V28.54h17.13v15.62h5.04v13.4h-5.04
			v41.41c0,1.28,0.1,2.22,0.3,2.82c0.2,0.6,0.74,0.91,1.61,0.91c0.67,0,1.31-0.03,1.91-0.1l1.21-0.13v12.12
			c-1.01,0.27-2.47,0.55-4.38,0.86c-1.91,0.3-3.78,0.45-5.59,0.45C277.57,115.9,274.38,114.92,272.63,112.97z" />
			<path class="st4" d="M297.62,36.4V24.1h17.63V36.4H297.62z M297.62,115.09V41.33h17.63v73.76H297.62z" />
		</g>
	</g>
</svg>