<?xml version="1.0" encoding="UTF-8"?>
<svg xmlns="http://www.w3.org/2000/svg" viewBox="0 0 1847.83 1775.71">
    <g style="isolation:isolate;">
        <g id="a">
            <circle cx="873.88" cy="1617.27" r="14.4" style="fill:#39096b;" />
            <g>
                <circle cx="969.9" cy="1324.41" r="451.3" style="fill:#39096b;" />
                <path d="M1623.99,1108.63c-71.29,261.63-260.19,446.23-260.19,446.23h0c-238.35,125.21-522.17,129.07-763.83,10.38l-21.13-10.38s-189.19-184.89-260.35-446.85c-7.37-27.13,.03-56.16,19.95-76L962.92,409.81l640.41,622.12c20.42,19.84,28.14,49.23,20.66,76.69Z" style="fill:#ae7cd1;" />
                <path d="M1603.33,1031.93L962.92,409.81,338.43,1032.01c-10.71,10.68-17.67,24.04-20.79,38.3,2.26,15.35,10.55,29.23,23.24,38.38l43.7,31.5c172.25,124.16,375.51,189.79,587.8,189.8h.01c229.12,0,453.49-79.27,631.71-223.21,11.19-9.03,18.5-21.88,20.69-35.97-3.21-14.53-10.4-28.12-21.46-38.87Z" style="fill:#39096b;" />
                <path d="M1567.91,1061.95c35.21-528.11-182.44-973.01-524.91-973.01h-143.51c-342.47,0-560.12,444.89-524.91,973.01l43.7,31.5c346.52,249.78,817.31,236.88,1149.64-31.5h0Z" style="fill:#39096b;" />
                <path d="M1396.88,294.69c-56.51,11.1-103.51,77.51-143.72,155.93-48.01,93.62-264.06,120.03-364.88,4.8-94.47-107.97-254.27-152.7-362.9-130.26-112.78,179.96-170.21,445.71-150.81,736.79l43.7,31.5c346.52,249.78,817.31,236.88,1149.64-31.5h0c20.53-307.98-44.96-587.62-171.02-767.26Z" style="fill:#d89dfc;" />
                <path d="M1042.99,88.95h-59.36c342.47,0,560.12,444.89,524.91,973.01h0c-165.24,133.45-364.72,203.7-566.14,209.93,221.27,6.98,444.03-63.38,625.5-209.93h0c35.21-528.11-182.44-973.01-524.91-973.01Z" style="fill:#1a1a1a; mix-blend-mode:screen;" />
                <path d="M1042.99,88.95h-59.36c342.47,0,398.22,444.89,363.02,973.01h161.9c-165.24,133.45-364.72,203.7-566.14,209.93,221.27,6.98,444.03-63.38,625.5-209.93h0c35.21-528.11-182.44-973.01-524.91-973.01Z" style="fill:#1a1a1a; mix-blend-mode:screen;" />
                <path d="M1124.96,1165.3c-467.08-34.44-698.79-590.38-386.2-939.15,62.03-69.21,135.45-117.01,218.02-137.2h-57.29c-342.47,0-560.12,444.89-524.91,973.01l43.7,31.5c297.18,214.21,685.75,235.21,1000,67.57-93.55,11.86-194.29,11.58-293.31,4.28Z" style="fill:#d5daf5; mix-blend-mode:multiply;" />
                <circle cx="683.05" cy="750.98" r="160.83" style="fill:#d5daf5; mix-blend-mode:multiply;" />
                <circle cx="701.04" cy="748.29" r="160.83" style="fill:#39096b;" />
                <circle cx="683.05" cy="750.98" r="91.22" style="fill:#d89dfc;" />
                <circle cx="701.04" cy="748.29" r="91.22" style="fill:#fff;" />
                <circle cx="705.84" cy="964.33" r="33.61" transform="translate(-358.46 1507.85) rotate(-80.85)" style="fill:#39096b;" />
                <circle cx="827.47" cy="272.98" r="41.61" style="fill:#fff;" />
                <circle cx="1209.95" cy="261.78" r="28.01" transform="translate(648.32 1365) rotate(-75.23)" style="fill:#fff;" />
                <path d="M1006.51,754.29h0c-6.3,0-11.4-5.11-11.4-11.4v-97.22c0-6.3,5.11-11.4,11.4-11.4h0c6.3,0,11.4,5.11,11.4,11.4v97.22c0,6.3-5.11,11.4-11.4,11.4Z" style="fill:#39096b;" />
                <path d="M1083.32,754.29h0c-6.3,0-11.4-5.11-11.4-11.4v-97.22c0-6.3,5.11-11.4,11.4-11.4h0c6.3,0,11.4,5.11,11.4,11.4v97.22c0,6.3-5.11,11.4-11.4,11.4Z" style="fill:#39096b;" />
                <path d="M1160.14,754.29h0c-6.3,0-11.4-5.11-11.4-11.4v-97.22c0-6.3,5.1-11.4,11.4-11.4h0c6.3,0,11.4,5.11,11.4,11.4v97.22c0,6.3-5.11,11.4-11.4,11.4Z" style="fill:#39096b;" />
                <circle cx="433.78" cy="1229.99" r="14.4" style="fill:#39096b;" />
                <circle cx="704.24" cy="1332.41" r="14.4" style="fill:#39096b;" />
                <circle cx="1061.12" cy="1356.42" r="14.4" transform="translate(-648.34 1147.61) rotate(-45)" style="fill:#39096b;" />
                <circle cx="1438.8" cy="1258.8" r="14.4" transform="translate(-34.21 2477.38) rotate(-80.78)" style="fill:#39096b;" />
                <circle cx="1227.55" cy="1577.26" r="14.4" transform="translate(-495.73 2589.65) rotate(-82.54)" style="fill:#39096b;" />
                <circle cx="605.02" cy="1532.45" r="14.4" transform="translate(-1004.74 1883.37) rotate(-80.75)" style="fill:#39096b;" />
                <path d="M1461.86,995.52l-185.37,55.51c-31.54,9.44-53.78,37.62-55.65,70.49l-6.8,119.45c104.07-27.4,204.33-72.73,296.01-135.94l-1.74-75.75c-.55-23.82-23.62-40.59-46.44-33.75Z" style="fill:#39096b;" />
                <path d="M1225.54,1237.97c104.34-28.87,204.6-76.06,296.03-141.13l-1.66-72.38c-.55-23.82-23.62-40.59-46.44-33.75l-185.37,55.51c-31.53,9.44-53.78,37.62-55.65,70.49l-6.9,121.27Z" style="fill:#ae7cd1;" />
                <circle cx="1283.57" cy="1106.76" r="14.4" transform="translate(-325.83 575.45) rotate(-22.5)" style="fill:#39096b;" />
                <circle cx="1376.79" cy="1077.16" r="14.4" style="fill:#39096b;" />
                <circle cx="1474.41" cy="1039.55" r="14.4" transform="translate(-303.23 1347.04) rotate(-45)" style="fill:#39096b;" />
            </g>
        </g>
        <g id="b">
            <g id="c" />
            <g id="d" />
            <g id="e" />
            <g id="f" />
            <g id="g" />
            <g id="h" />
            <g id="i" />
            <g id="j">
                <g>
                    <path d="M1446.51,230.51c-36.12-71.54-49.32-166.36-37.32-171.17,12-4.8,32.41-16.8,39.61-13.2,7.2,3.6,67.21,145.23,67.21,145.23l-69.51,39.14Z" style="fill:#39096b;" />
                    <path d="M1446.51,230.51c-36.12-71.54-49.32-166.36-37.32-171.17,12-4.8,32.41-16.8,39.61-13.2,7.2,3.6,67.21,145.23,67.21,145.23l-69.51,39.14Z" style="fill:#39096b;" />
                    <path d="M1526.82,211.77c-25.21-60.01-62.41-184.84-46.81-190.84,15.6-6,40.81-20.4,54.01-12,13.2,8.4,61.21,147.63,61.21,147.63l-68.41,55.21Z" style="fill:#39096b;" />
                    <path d="M1446.51,230.51c-36.12-71.54-49.32-166.36-37.32-171.17,12-4.8,32.41-16.8,39.61-13.2,7.2,3.6,67.21,145.23,67.21,145.23l-69.51,39.14Z" style="fill:#39096b;" />
                    <path d="M1526.82,211.77c-25.21-60.01-62.41-184.84-46.81-190.84,15.6-6,40.81-20.4,54.01-12,13.2,8.4,61.21,147.63,61.21,147.63l-68.41,55.21Z" style="fill:#39096b;" />
                    <path d="M1588.03,152.96c9.6-64.81-44.41-135.63-20.4-147.63,24.01-12,49.21-2.4,63.61,15.6,14.4,18,44.41,134.43,44.41,134.43l-86.42,2.4-1.2-4.8Z" style="fill:#39096b;" />
                    <path d="M1446.51,230.51c-36.12-71.54-49.32-166.36-37.32-171.17,12-4.8,32.41-16.8,39.61-13.2,7.2,3.6,67.21,145.23,67.21,145.23l-69.51,39.14Z" style="fill:#39096b;" />
                    <path d="M1526.82,211.77c-25.21-60.01-62.41-184.84-46.81-190.84,15.6-6,40.81-20.4,54.01-12,13.2,8.4,61.21,147.63,61.21,147.63l-68.41,55.21Z" style="fill:#39096b;" />
                    <path d="M1588.03,152.96c9.6-64.81-44.41-135.63-20.4-147.63,24.01-12,49.21-2.4,63.61,15.6,14.4,18,44.41,134.43,44.41,134.43l-86.42,2.4-1.2-4.8Z" style="fill:#39096b;" />
                    <path d="M1599.85,387.2c-90.45-12.34-135.99-106.8-153.34-156.69,14.04-34.71,129.16-113.59,227.04-84.8,19.6,49.05,47.15,150.23-13.07,218.85l-60.63,22.65Z" style="fill:#41117f;" />
                    <path d="M1446.51,230.51c-36.12-71.54-49.32-166.36-37.32-171.17,12-4.8,32.41-16.8,39.61-13.2,7.2,3.6,67.21,145.23,67.21,145.23l-69.51,39.14Z" style="fill:#39096b;" />
                    <path d="M1526.82,211.77c-25.21-60.01-62.41-184.84-46.81-190.84,15.6-6,40.81-20.4,54.01-12,13.2,8.4,61.21,147.63,61.21,147.63l-68.41,55.21Z" style="fill:#39096b;" />
                    <path d="M1588.03,152.96c9.6-64.81-44.41-135.63-20.4-147.63,24.01-12,49.21-2.4,63.61,15.6,14.4,18,44.41,134.43,44.41,134.43l-86.42,2.4-1.2-4.8Z" style="fill:#39096b;" />
                    <path d="M1599.85,387.2c-90.45-12.34-135.99-106.8-153.34-156.69,14.04-34.71,129.16-113.59,227.04-84.8,19.6,49.05,47.15,150.23-13.07,218.85l-60.63,22.65Z" style="fill:#41117f;" />
                    <path d="M1673.55,145.7c-89.81-26.41-194.08,37.8-221.51,75.38,20.27-16.31,48.79-33.13,80.81-44.29,67.11-23.4,136.6,24.29,139.82,95.28,1.46,32.22-3.58,66.03-21.32,95.89l9.14-3.41c60.21-68.62,32.67-169.8,13.07-218.85Z" style="fill:#1a1a1a; mix-blend-mode:screen;" />
                    <path d="M1446.51,230.51c-36.12-71.54-49.32-166.36-37.32-171.17,12-4.8,32.41-16.8,39.61-13.2,7.2,3.6,67.21,145.23,67.21,145.23l-69.51,39.14Z" style="fill:#39096b;" />
                    <path d="M1526.82,211.77c-25.21-60.01-62.41-184.84-46.81-190.84,15.6-6,40.81-20.4,54.01-12,13.2,8.4,61.21,147.63,61.21,147.63l-68.41,55.21Z" style="fill:#39096b;" />
                    <path d="M1588.03,152.96c9.6-64.81-44.41-135.63-20.4-147.63,24.01-12,49.21-2.4,63.61,15.6,14.4,18,44.41,134.43,44.41,134.43l-86.42,2.4-1.2-4.8Z" style="fill:#39096b;" />
                    <path d="M1599.85,387.2c-90.45-12.34-135.99-106.8-153.34-156.69,14.04-34.71,129.16-113.59,227.04-84.8,19.6,49.05,47.15,150.23-13.07,218.85l-60.63,22.65Z" style="fill:#41117f;" />
                    <path d="M1673.55,145.7c-89.81-26.41-194.08,37.8-221.51,75.38,20.27-16.31,48.79-33.13,80.81-44.29,67.11-23.4,136.6,24.29,139.82,95.28,1.46,32.22-3.58,66.03-21.32,95.89l9.14-3.41c60.21-68.62,32.67-169.8,13.07-218.85Z" style="fill:#1a1a1a; mix-blend-mode:screen;" />
                    <path d="M1726.54,863.78c-137.04,0-338.06-105.69-340.67-107.14-23.18-12.87-31.53-42.1-18.65-65.28,12.87-23.18,42.12-31.54,65.28-18.65,96.92,53.84,279.96,110.99,319.78,93.2,5.29-43.48-66.78-207.84-158.57-360.12-13.69-22.71-6.38-52.22,16.33-65.9,22.72-13.7,52.22-6.37,65.9,16.33,2.2,3.66,54.53,90.69,100.89,187.36,73.82,153.91,88.94,238.8,50.57,283.84-22.39,26.29-58.6,36.35-100.88,36.35Z" style="fill:#39096b;" />
                    <path d="M1446.51,230.51c-36.12-71.54-49.32-166.36-37.32-171.17,12-4.8,32.41-16.8,39.61-13.2,7.2,3.6,67.21,145.23,67.21,145.23l-69.51,39.14Z" style="fill:#39096b;" />
                    <path d="M1526.82,211.77c-25.21-60.01-62.41-184.84-46.81-190.84,15.6-6,40.81-20.4,54.01-12,13.2,8.4,61.21,147.63,61.21,147.63l-68.41,55.21Z" style="fill:#39096b;" />
                    <path d="M1588.03,152.96c9.6-64.81-44.41-135.63-20.4-147.63,24.01-12,49.21-2.4,63.61,15.6,14.4,18,44.41,134.43,44.41,134.43l-86.42,2.4-1.2-4.8Z" style="fill:#39096b;" />
                    <path d="M1599.85,387.2c-90.45-12.34-135.99-106.8-153.34-156.69,14.04-34.71,129.16-113.59,227.04-84.8,19.6,49.05,47.15,150.23-13.07,218.85l-60.63,22.65Z" style="fill:#41117f;" />
                    <path d="M1673.55,145.7c-89.81-26.41-194.08,37.8-221.51,75.38,20.27-16.31,48.79-33.13,80.81-44.29,67.11-23.4,136.6,24.29,139.82,95.28,1.46,32.22-3.58,66.03-21.32,95.89l9.14-3.41c60.21-68.62,32.67-169.8,13.07-218.85Z" style="fill:#1a1a1a; mix-blend-mode:screen;" />
                    <path d="M1726.54,863.78c-137.04,0-338.06-105.69-340.67-107.14-23.18-12.87-31.53-42.1-18.65-65.28,12.87-23.18,42.12-31.54,65.28-18.65,96.92,53.84,279.96,110.99,319.78,93.2,5.29-43.48-66.78-207.84-158.57-360.12-13.69-22.71-6.38-52.22,16.33-65.9,22.72-13.7,52.22-6.37,65.9,16.33,2.2,3.66,54.53,90.69,100.89,187.36,73.82,153.91,88.94,238.8,50.57,283.84-22.39,26.29-58.6,36.35-100.88,36.35Z" style="fill:#39096b;" />
                    <path d="M1387.46,708.9c12.87-23.18,42.12-31.54,65.28-18.65,96.92,53.84,279.96,110.99,319.78,93.2,5.29-43.48-66.78-207.84-158.57-360.12-13.69-22.71-6.38-52.22,16.34-65.9,14.11-8.51,30.84-8.89,44.77-2.53-14.03-21.63-42.76-28.43-65.01-15.01-22.71,13.69-30.03,43.2-16.34,65.9,91.79,152.28,163.86,316.64,158.57,360.12-39.82,17.79-222.86-39.36-319.78-93.2-23.17-12.89-52.41-4.52-65.28,18.65-12.88,23.18-4.53,52.41,18.65,65.28,.18,.1,1.36,.72,3.3,1.73-9.35-14.42-10.65-33.4-1.72-49.47Z" style="fill:#1a1a1a; mix-blend-mode:screen;" />
                    <path d="M1446.51,230.51c-36.12-71.54-49.32-166.36-37.32-171.17,12-4.8,32.41-16.8,39.61-13.2,7.2,3.6,67.21,145.23,67.21,145.23l-69.51,39.14Z" style="fill:#39096b;" />
                    <path d="M1526.82,211.77c-25.21-60.01-62.41-184.84-46.81-190.84,15.6-6,40.81-20.4,54.01-12,13.2,8.4,61.21,147.63,61.21,147.63l-68.41,55.21Z" style="fill:#39096b;" />
                    <path d="M1588.03,152.96c9.6-64.81-44.41-135.63-20.4-147.63,24.01-12,49.21-2.4,63.61,15.6,14.4,18,44.41,134.43,44.41,134.43l-86.42,2.4-1.2-4.8Z" style="fill:#39096b;" />
                    <path d="M1599.85,387.2c-90.45-12.34-135.99-106.8-153.34-156.69,14.04-34.71,129.16-113.59,227.04-84.8,19.6,49.05,47.15,150.23-13.07,218.85l-60.63,22.65Z" style="fill:#41117f;" />
                    <path d="M1673.55,145.7c-89.81-26.41-194.08,37.8-221.51,75.38,20.27-16.31,48.79-33.13,80.81-44.29,67.11-23.4,136.6,24.29,139.82,95.28,1.46,32.22-3.58,66.03-21.32,95.89l9.14-3.41c60.21-68.62,32.67-169.8,13.07-218.85Z" style="fill:#1a1a1a; mix-blend-mode:screen;" />
                    <path d="M1726.54,863.78c-137.04,0-338.06-105.69-340.67-107.14-23.18-12.87-31.53-42.1-18.65-65.28,12.87-23.18,42.12-31.54,65.28-18.65,96.92,53.84,279.96,110.99,319.78,93.2,5.29-43.48-66.78-207.84-158.57-360.12-13.69-22.71-6.38-52.22,16.33-65.9,22.72-13.7,52.22-6.37,65.9,16.33,2.2,3.66,54.53,90.69,100.89,187.36,73.82,153.91,88.94,238.8,50.57,283.84-22.39,26.29-58.6,36.35-100.88,36.35Z" style="fill:#39096b;" />
                    <path d="M1387.46,708.9c12.87-23.18,42.12-31.54,65.28-18.65,96.92,53.84,279.96,110.99,319.78,93.2,5.29-43.48-66.78-207.84-158.57-360.12-13.69-22.71-6.38-52.22,16.34-65.9,14.11-8.51,30.84-8.89,44.77-2.53-14.03-21.63-42.76-28.43-65.01-15.01-22.71,13.69-30.03,43.2-16.34,65.9,91.79,152.28,163.86,316.64,158.57,360.12-39.82,17.79-222.86-39.36-319.78-93.2-23.17-12.89-52.41-4.52-65.28,18.65-12.88,23.18-4.53,52.41,18.65,65.28,.18,.1,1.36,.72,3.3,1.73-9.35-14.42-10.65-33.4-1.72-49.47Z" style="fill:#1a1a1a; mix-blend-mode:screen;" />
                    <path d="M1548.48,334.59c-83.23-31.48-147.73,19.45-158.2-9.81-10.47-29.25,24.67-79.04,87.47-83.84s96.53,92.82,70.74,93.65Z" style="fill:#39096b;" />
                </g>
            </g>
        </g>
        <g id="k">
            <g id="l" />
            <g id="m" />
            <g id="n" />
            <g id="o" />
            <g id="p" />
            <g id="q" />
            <g id="r" />
            <g id="s">
                <g>
                    <path d="M212.94,1495.65c54.41,70.42,136.03,60.81,129.63,91.22-6.4,30.41-62.41,54.41-118.43,25.61-56.01-28.81-33.61-129.63-11.2-116.82Z" style="fill:#39096b;" />
                    <path d="M.09,1586.07c20.8,83.22,66.41,147.23,75.22,153.63,8.8,6.4,32.01,8.8,36.01,4,4-4.8-24.81-140.83-24.81-140.83,0,0-52.81-17.6-86.42-16.8Z" style="fill:#41117f;" />
                    <path d="M72.11,1603.67c13.6,69.61,44.01,140.03,51.21,141.63,7.2,1.6,39.21,3.2,47.21-8.8,8-12-17.6-132.03-17.6-132.03l-80.82-.8Z" style="fill:#41117f;" />
                    <path d="M242.45,1586.07c1.69,67.21-20.71,143.23-27.11,145.63-6.4,2.4-23.2,5.6-30.41,3.2-7.2-2.4-35.21-112.82-35.21-124.83s92.73-24.01,92.73-24.01Z" style="fill:#39096b;" />
                    <path d="M153.63,1385.62c80.42,43.21,90.02,147.63,88.82,200.44-25.3,27.61-160.74,61.21-242.36,0-1.2-52.81,8.4-157.23,88.82-200.44h64.72Z" style="fill:#41117f;" />
                    <path d="M154.21,1385.95c23.61,23.67,37.64,54.12,45.71,84.4,15.73,59-25.01,118.05-85.74,124.34-36.65,3.79-77.98,.97-114.16-14.46,.01,2,.04,3.96,.08,5.84,81.62,61.21,217.06,27.61,242.36,0,1.2-52.68-8.37-156.71-88.25-200.11Z" style="fill:#1a1a1a; mix-blend-mode:screen;" />
                    <path d="M121.66,1452.44c-24.58,0-45.53-18.77-47.76-43.73-9.33-103.9-16.65-362.26,116.32-516.78,58.85-68.4,136.06-105.93,229.48-111.55,26.38-1.66,49.22,18.57,50.81,45.03,1.6,26.47-18.57,49.22-45.03,50.81-67.46,4.06-120.61,29.69-162.48,78.34-75.67,87.93-110.61,254.5-93.46,445.57,2.37,26.41-17.12,49.74-43.53,52.11-1.46,.13-2.91,.2-4.35,.2Z" style="fill:#39096b;" />
                    <path d="M470.5,825.42c-.98-16.23-9.96-30.08-22.82-38.01,2.99,5.77,4.87,12.23,5.28,19.12,1.6,26.47-18.57,49.22-45.03,50.81-67.46,4.06-120.61,29.69-162.48,78.34-75.67,87.93-110.61,254.5-93.46,445.57,2.37,26.41-17.12,49.74-43.53,52.11-1.46,.13-2.91,.2-4.35,.2-9.11,0-17.72-2.59-25.07-7.11,8.06,15.6,24.32,26,42.6,26,1.44,0,2.89-.07,4.35-.2,26.41-2.37,45.9-25.7,43.53-52.11-17.15-191.07,17.79-357.63,93.46-445.57,41.87-48.65,95.01-74.28,162.48-78.34,26.47-1.59,46.63-24.34,45.03-50.81Z" style="fill:#1f1f1f; mix-blend-mode:screen;" />
                </g>
            </g>
        </g>
    </g>
</svg>